<svg id="Layer_1" data-name="Layer 1" xmlns="http://www.w3.org/2000/svg" viewBox="0 0 39.94 44.93"><defs><style>.cls-1{fill:none;}.cls-2{fill:#5167b0;}.cls-3{fill:#3954a5;}.cls-4{fill:#179cd3;}.cls-5{fill:#2d51a3;}.cls-6{fill:#263c8f;}.cls-7{fill:#eaeaea;}</style></defs><polygon class="cls-1" points="18.62 26.22 0.22 44.64 0.22 44.64 18.63 26.23 18.62 26.22"/><polygon class="cls-2" points="18.62 26.22 18.63 26.23 18.97 25.89 18.98 26.58 19.16 26.75 29.14 16.8 27.77 15.42 18.29 25.1 19.08 25.77 18.62 26.22"/><path class="cls-3" d="M41.1,17.79c1.95-.94,6.14-6.28,6.14-6.28H32.57v9.75A13.43,13.43,0,0,0,41.1,17.79Z" transform="translate(-12.03 -9.54)"/><path class="cls-4" d="M21.57,30c.14-2.56,3.28-6.37,3.28-6.37l7.48-7.19V9.54c-10.71.72-15.83,7.72-15.83,7.72A20.11,20.11,0,0,0,12.11,27V45l9.46-9.31Z" transform="translate(-12.03 -9.54)"/><path class="cls-5" d="M42.22,31.16l.05,5.11c-.48,2.85-3.19,5.21-3.19,5.21C36.58,44.81,31,45,31,45l-1,0-8.59,8.94v.53h11.2a25.36,25.36,0,0,0,5.6-.86c4.15-1,8.44-5.55,8.44-5.55,4.35-4,5.36-11,5.36-11V21.84Z" transform="translate(-12.03 -9.54)"/><polygon class="cls-6" points="19.16 34.16 18.98 26.58 18.97 25.89 18.63 26.23 0.22 44.64 9.1 44.64 9.34 44.39 17.93 35.45 19.16 34.16"/><polygon class="cls-6" points="0 44.86 0.22 44.64 0.22 44.64 0 44.86"/><polygon class="cls-6" points="19.08 25.77 18.29 25.1 18.22 25.05 14.73 26.02 0 40.74 0.08 44.64 0.22 44.64 18.62 26.22 19.08 25.77"/><polygon class="cls-7" points="38.52 7.49 38.26 5.32 27.77 15.42 29.14 16.8 38.52 7.49"/></svg>