<svg id="Layer_1" data-name="Layer 1" xmlns="http://www.w3.org/2000/svg" viewBox="0 0 272.28 66.28"><defs><style>.cls-1{isolation:isolate;font-size:56.04px;fill:#fff;font-family:ArialMT, Arial;}.cls-2,.cls-8{fill:none;}.cls-3{fill:#5167b0;}.cls-4{fill:#3954a5;}.cls-5{fill:#179cd3;}.cls-6{fill:#2d51a3;}.cls-7{fill:#263c8f;}.cls-8{stroke:#263c8f;stroke-linecap:round;stroke-linejoin:round;stroke-width:0;}.cls-9{fill:#eaeaea;}</style></defs><text class="cls-1" transform="translate(51.23 48.09)">Derivium</text><polygon class="cls-2" points="18.17 33.8 0.21 51.77 18.18 33.81 18.17 33.8"/><polygon class="cls-3" points="18.17 33.8 18.18 33.81 18.51 33.48 18.52 34.16 18.69 34.32 28.43 24.61 27.09 23.27 17.84 32.71 18.61 33.37 18.17 33.8"/><path class="cls-4" d="M42.23,33.48H27.92V43a13.11,13.11,0,0,0,8.32-3.39C38.14,38.69,42.23,33.48,42.23,33.48Z" transform="translate(-7.88 -23.34)"/><path class="cls-5" d="M17.19,51.52c.13-2.49,3.2-6.21,3.2-6.21l7.29-7V31.56c-10.44.71-15.44,7.53-15.44,7.53A19.59,19.59,0,0,0,8,48.6V66.16l9.23-9.08Z" transform="translate(-7.88 -23.34)"/><path class="cls-6" d="M37.33,52.66l.05,5c-.47,2.78-3.11,5.08-3.11,5.08-2.44,3.25-7.88,3.44-7.88,3.44h-1L17,74.88v.52H28a25.23,25.23,0,0,0,5.46-.84c4-1,8.24-5.42,8.24-5.42,4.24-3.9,5.22-10.73,5.22-10.73V43.56Z" transform="translate(-7.88 -23.34)"/><polygon class="cls-7" points="18.69 41.55 18.52 34.16 18.51 33.48 18.18 33.81 0.21 51.77 8.88 51.77 9.11 51.53 17.49 42.81 18.69 41.55"/><line class="cls-8" y1="51.99" x2="0.21" y2="51.78"/><polygon class="cls-7" points="18.61 33.37 17.84 32.71 17.78 32.66 14.37 33.61 0 47.97 0.08 51.77 0.21 51.77 18.17 33.8 18.61 33.37"/><polygon class="cls-9" points="37.58 15.53 37.33 13.41 27.09 23.27 28.43 24.61 37.58 15.53"/></svg>